<svg xmlns="http://www.w3.org/2000/svg" viewBox="0 0 64 64" width="64" height="64">
  <defs>
    <!-- Define the musical note path -->
    <path id="note" d="M 28 45 A 6 6 0 1 1 28 33 A 6 6 0 1 1 28 45 M 34 35 L 34 10 L 34 10 Q 42 12 46 18 L 42 20 Q 39 16 34 15 L 34 35 M 39 41 A 1.5 1.5 0 1 1 39 38 A 1.5 1.5 0 1 1 39 41"/>
    
    <!-- Glitch filter -->
    <filter id="glitch">
      <feTurbulence type="fractalNoise" baseFrequency="0.9" numOctaves="3" result="noise"/>
      <feDisplacementMap in="SourceGraphic" in2="noise" scale="2" xChannelSelector="R" yChannelSelector="G"/>
    </filter>
  </defs>
  
  <!-- Background -->
  <rect width="64" height="64" fill="#0a0a0a"/>
  
  <!-- Green layer (offset left and down) -->
  <use href="#note" fill="none" stroke="#00ff41" stroke-width="2.5" opacity="0.6" transform="translate(-1.5, 1.5)"/>
  
  <!-- Red layer (offset right and up) -->
  <use href="#note" fill="none" stroke="#ff0051" stroke-width="2.5" opacity="0.6" transform="translate(1.5, -1.5)"/>
  
  <!-- Main white/cyan layer -->
  <use href="#note" fill="#e0ffff" stroke="#00ffff" stroke-width="1" opacity="0.95"/>
  
  <!-- Additional glitch artifacts -->
  <line x1="20" y1="25" x2="30" y2="25" stroke="#00ff41" stroke-width="1" opacity="0.3"/>
  <line x1="36" y1="30" x2="42" y2="30" stroke="#ff0051" stroke-width="1" opacity="0.3"/>
  <line x1="25" y1="42" x2="32" y2="42" stroke="#00ff41" stroke-width="0.5" opacity="0.4"/>
  
  <!-- Scan line effect -->
  <rect x="0" y="20" width="64" height="1" fill="#00ffff" opacity="0.1"/>
  <rect x="0" y="40" width="64" height="1" fill="#00ff41" opacity="0.1"/>
</svg>